<?xml version="1.0" encoding="utf-8"?>
<!-- Generator: Adobe Illustrator 26.0.3, SVG Export Plug-In . SVG Version: 6.00 Build 0)  -->
<svg version="1.1" id="Layer_1" xmlns="http://www.w3.org/2000/svg" xmlns:xlink="http://www.w3.org/1999/xlink" x="0px" y="0px"
	 viewBox="0 0 253.1 80.8" style="enable-background:new 0 0 253.1 80.8;" xml:space="preserve">
<style type="text/css">
	.st0{fill:#FFFFFF;}
</style>
<g>
	<g>
		<g>
			<g>
				<g>
					<path class="st0" d="M21.2,38.7c1,0,1.8,0.8,1.8,1.8c0,1-0.8,1.8-1.8,1.8H12l18,22.8V15.9L12,38.7H21.2z"/>
					<path class="st0" d="M62.6,37.7L34,1.4c-1.2-1.5-3.2-1.5-4.4,0L0.9,37.7c-1.2,1.5-1.2,4.1,0,5.6l28.6,36.3
						c1.2,1.5,3.2,1.5,4.4,0l28.6-36.3C63.8,41.7,63.8,39.2,62.6,37.7z M56,42.3L33.7,70.6c-0.5,0.6-1.2,1-2,1c-0.8,0-1.5-0.4-2-1
						L7.5,42.3c-0.8-1.1-0.8-2.6,0-3.7l22.3-28.3c0.5-0.6,1.2-1,2-1c0.8,0,1.5,0.4,2,1L51,32.3c0.6,0.8,0.5,1.9-0.3,2.5
						c-0.8,0.6-1.9,0.5-2.5-0.3L33.5,15.9v49.2l18-22.8h-9.2c-1,0-1.8-0.8-1.8-1.8c0-1,0.8-1.8,1.8-1.8h12c0.9,0,1.7,0.5,2.1,1.2
						C56.7,40.7,56.6,41.6,56,42.3z"/>
				</g>
			</g>
		</g>
	</g>
	<g>
		<path class="st0" d="M75,18.1c2-0.2,2.3-0.4,2.3-1.9V2.9C77.3,1.4,77,1.2,75,1V0.3h13.8L89,4.7h-0.5c-1.2-2.8-2-3.5-3.9-3.5h-4.7
			v7.7H84c1.1,0,1.6-0.8,1.9-2.4h0.7v5.6h-0.7c-0.3-1.6-0.7-2.4-1.9-2.4h-4.2v6.5c0,1.4,0.8,1.8,2.6,1.8h2.4c1.9,0,2.8-1.1,4.4-3.9
			h0.6l-0.8,4.8H75V18.1z"/>
		<path class="st0" d="M108,1.6v3.9h-0.7c-0.6-3-2.3-4.6-5-4.6c-4,0-6,3.8-6,8.3c0,5,2.2,9,6.2,9c2.8,0,4.5-1.5,5.3-5.3h0.8
			l-0.3,4.7c-1.6,0.9-3.3,1.4-5.7,1.4c-5.5,0-8.9-3.8-8.9-9.2c0-6.1,3.7-10,8.7-10C104.5,0,106.5,0.6,108,1.6z"/>
		<path class="st0" d="M112.4,9.9c0-6.1,3.7-9.9,8.4-9.9c5.3,0,8.3,4.4,8.3,9.2c0,6.1-3.8,9.9-8.4,9.9
			C115.3,19.1,112.4,14.7,112.4,9.9z M126.3,9.6c0-4.1-1.8-8.7-5.7-8.7c-3.5,0-5.5,3.9-5.5,8.7c0,4.1,1.8,8.7,5.7,8.7
			C124.4,18.2,126.3,14.3,126.3,9.6z"/>
		<path class="st0" d="M147.7,2.9c0-1.5-0.4-1.7-2.6-1.9V0.3h6V1c-2,0.2-2.3,0.4-2.3,1.9v16H148L136.1,3.6v12.6
			c0,1.5,0.4,1.7,2.6,1.9v0.7h-6v-0.7c2-0.2,2.3-0.4,2.3-1.9V2.6c-0.9-1.2-1.3-1.6-2.4-1.6V0.3h4.1l10.9,14.2V2.9z"/>
		<path class="st0" d="M154.4,9.9c0-6.1,3.7-9.9,8.4-9.9c5.3,0,8.3,4.4,8.3,9.2c0,6.1-3.8,9.9-8.4,9.9
			C157.3,19.1,154.4,14.7,154.4,9.9z M168.3,9.6c0-4.1-1.8-8.7-5.7-8.7c-3.5,0-5.5,3.9-5.5,8.7c0,4.1,1.8,8.7,5.7,8.7
			C166.4,18.2,168.3,14.3,168.3,9.6z"/>
		<path class="st0" d="M190.6,3.9l-5.4,15h-0.6l-5.9-15l-1.4,11.9c0,0.2-0.1,0.6-0.1,0.6c0,1.3,0.6,1.5,2.4,1.7v0.7h-5.6v-0.7
			c1.5-0.1,2-0.3,2.1-1.6l1.6-13.6c0-1.4-0.6-1.8-2.3-1.9V0.3h4.5c0.1,0.6,0.2,1,0.4,1.5l5.1,13.1l4.7-13.1c0.2-0.6,0.3-0.9,0.4-1.5
			h4.5V1c-1.7,0.1-2.2,0.5-2.2,1.9l1.6,13.6c0.2,1.2,0.7,1.5,2.1,1.6v0.7h-7.1v-0.7c1.8-0.2,2.4-0.4,2.4-1.7c0-0.1,0-0.5,0-0.6
			L190.6,3.9z"/>
		<path class="st0" d="M204.7,16.3c0,1.5,0.4,1.6,2.3,1.9v0.7h-7.1v-0.7c2-0.2,2.3-0.4,2.3-1.9V2.9c0-1.5-0.4-1.6-2.3-1.9V0.3h7.1V1
			c-2,0.2-2.3,0.4-2.3,1.9V16.3z"/>
		<path class="st0" d="M225.1,1.6v3.9h-0.7c-0.6-3-2.3-4.6-5-4.6c-4,0-6,3.8-6,8.3c0,5,2.2,9,6.2,9c2.8,0,4.5-1.5,5.3-5.3h0.8
			l-0.3,4.7c-1.6,0.9-3.3,1.4-5.7,1.4c-5.5,0-8.9-3.8-8.9-9.2c0-6.1,3.7-10,8.7-10C221.7,0,223.6,0.6,225.1,1.6z"/>
	</g>
	<g>
		<path class="st0" d="M79.8,47c0,1.5,0.4,1.6,2.3,1.9v0.7H75v-0.7c2-0.2,2.3-0.4,2.3-1.9V33.6c0-1.5-0.4-1.6-2.3-1.9V31h7.1v0.7
			c-2,0.2-2.3,0.4-2.3,1.9V47z"/>
		<path class="st0" d="M100.6,33.7c0-1.5-0.4-1.7-2.6-1.9V31h6v0.7c-2,0.2-2.3,0.4-2.3,1.9v16H101L89,34.4V47c0,1.5,0.4,1.7,2.6,1.9
			v0.7h-6v-0.7c2-0.2,2.3-0.4,2.3-1.9V33.4c-0.9-1.2-1.3-1.6-2.4-1.6V31h4.1l10.9,14.2V33.7z"/>
		<path class="st0" d="M122.2,33.7c0-1.5-0.4-1.7-2.6-1.9V31h6v0.7c-2,0.2-2.3,0.4-2.3,1.9v16h-0.7l-11.9-15.4V47
			c0,1.5,0.4,1.7,2.6,1.9v0.7h-6v-0.7c2-0.2,2.3-0.4,2.3-1.9V33.4c-0.9-1.2-1.3-1.6-2.4-1.6V31h4.1l10.9,14.2V33.7z"/>
		<path class="st0" d="M128.9,40.7c0-6.1,3.7-9.9,8.4-9.9c5.3,0,8.3,4.4,8.3,9.2c0,6.1-3.8,9.9-8.4,9.9
			C131.8,49.9,128.9,45.5,128.9,40.7z M142.8,40.3c0-4.1-1.8-8.7-5.7-8.7c-3.5,0-5.5,3.9-5.5,8.7c0,4.1,1.8,8.7,5.7,8.7
			C140.9,49,142.8,45.1,142.8,40.3z"/>
		<path class="st0" d="M162.6,34c0.2-0.4,0.3-0.7,0.3-1.1c0-0.8-0.6-1.1-2.4-1.2V31h5.2v0.7c-0.7,0.1-1.3,0.3-1.6,1l-6.8,17.1h-0.5
			l-7.5-17.1c-0.3-0.7-0.8-0.9-1.6-1V31h6.8v0.7c-1.8,0.1-2.4,0.3-2.4,1.1c0,0.3,0.1,0.6,0.3,1.1l5.4,12.2L162.6,34z"/>
		<path class="st0" d="M177.4,43.1h-7.5l-1.4,3.6c-0.2,0.4-0.3,0.8-0.3,1.1c0,0.8,0.6,1.1,2.4,1.2v0.7h-5.2v-0.7
			c0.7-0.1,1.3-0.3,1.6-1l6.1-15.4l-0.7-1.7h2.6l7,17.1c0.3,0.7,0.8,0.9,1.6,1v0.7h-6.8v-0.7c1.8-0.1,2.4-0.3,2.4-1.1
			c0-0.3-0.1-0.7-0.3-1.1L177.4,43.1z M170.2,42.3h6.9l-3.5-8.6L170.2,42.3z"/>
		<path class="st0" d="M200.2,31l0.4,5.5H200c-1.5-3.7-2-4.7-4.3-4.7h-1.9v15.2c0,1.5,0.7,1.6,2.6,1.8v0.7h-7.7v-0.7
			c1.8-0.2,2.6-0.3,2.6-1.8V31.9h-2c-2.3,0-2.9,1-4.3,4.7h-0.6l0.4-5.5H200.2z"/>
		<path class="st0" d="M208.5,47c0,1.5,0.4,1.6,2.3,1.9v0.7h-7.1v-0.7c2-0.2,2.3-0.4,2.3-1.9V33.6c0-1.5-0.4-1.6-2.3-1.9V31h7.1v0.7
			c-2,0.2-2.3,0.4-2.3,1.9V47z"/>
		<path class="st0" d="M214.4,40.7c0-6.1,3.7-9.9,8.4-9.9c5.3,0,8.3,4.4,8.3,9.2c0,6.1-3.8,9.9-8.4,9.9
			C217.3,49.9,214.4,45.5,214.4,40.7z M228.3,40.3c0-4.1-1.8-8.7-5.7-8.7c-3.6,0-5.5,3.9-5.5,8.7c0,4.1,1.8,8.7,5.7,8.7
			C226.4,49,228.3,45.1,228.3,40.3z"/>
		<path class="st0" d="M249.7,33.7c0-1.5-0.4-1.7-2.6-1.9V31h6v0.7c-2,0.2-2.3,0.4-2.3,1.9v16H250l-11.9-15.4V47
			c0,1.5,0.4,1.7,2.6,1.9v0.7h-6v-0.7c2-0.2,2.3-0.4,2.3-1.9V33.4c-0.9-1.2-1.3-1.6-2.4-1.6V31h4.1l10.9,14.2V33.7z"/>
	</g>
	<g>
		<path class="st0" d="M87.7,74.4c0-1.5-0.4-1.6-2.3-1.9v-0.7h7v0.7c-2,0.2-2.3,0.4-2.3,1.9v4.4c-1.6,1.1-3.7,1.9-6.3,1.9
			c-5.4,0-8.7-4.1-8.7-9.2c0-6.1,3.7-10,8.9-10c2.3,0,4.3,0.5,5.8,1.5V67H89c-0.6-3-2.3-4.6-5.1-4.6c-4.3,0-6.2,3.8-6.2,8.4
			c0,4.7,2,9,6.3,9c1.4,0,2.7-0.2,3.7-1.1V74.4z"/>
		<path class="st0" d="M100.1,77.8c0,1.5,0.4,1.6,2.3,1.9v0.7h-7.1v-0.7c2-0.2,2.3-0.4,2.3-1.9V64.4c0-1.5-0.4-1.6-2.3-1.9v-0.7h7.1
			c4.5,0,6.7,2.1,6.7,5.1c0,3.1-2.7,4.6-4.7,5l4.3,5.6c1.3,1.6,2.1,2.2,3.6,2.2v0.7h-3.9c-0.8-0.5-1.4-1.3-2.2-2.4l-4.3-5.8h-1.8
			V77.8z M100.1,62.7v8.7h1.8c3.1,0,4.5-1.7,4.5-4.5c0-2.3-1.4-4.2-4.6-4.2H100.1z"/>
		<path class="st0" d="M114.4,71.5c0-6.1,3.7-9.9,8.4-9.9c5.3,0,8.3,4.4,8.3,9.2c0,6.1-3.8,9.9-8.4,9.9
			C117.3,80.7,114.4,76.3,114.4,71.5z M128.3,71.1c0-4.1-1.8-8.7-5.7-8.7c-3.5,0-5.5,3.9-5.5,8.7c0,4.1,1.8,8.7,5.7,8.7
			C126.3,79.8,128.3,75.9,128.3,71.1z"/>
		<path class="st0" d="M139,73.9c0,3.4,1.7,5.4,4.6,5.4c3.5,0,5.6-1.7,5.6-5.6v-9.2c0-1.5-0.4-1.7-2.6-1.9v-0.7h6v0.7
			c-2,0.2-2.3,0.4-2.3,1.9v9.7c0,4.4-3,6.5-6.6,6.5c-4.3,0-7-2.1-7-6.6v-9.6c0-1.5-0.4-1.6-2.3-1.9v-0.7h7.1v0.7
			c-2,0.2-2.3,0.4-2.3,1.9V73.9z"/>
		<path class="st0" d="M160.3,77.5c0,1.6,0.7,2,3.3,2.2v0.8h-8.1v-0.7c2-0.2,2.3-0.4,2.3-1.9V64.4c0-1.5-0.4-1.6-2.3-1.9v-0.7h7
			c4.8,0,7,2.6,7,5.4c0,3.3-2.3,5.6-6.9,5.6h-2.3V77.5z M160.3,71.9h1.7c3.3,0,4.7-1.7,4.7-4.6c0-2.5-1.4-4.7-4.7-4.7h-1.7V71.9z"/>
	</g>
</g>
</svg>
